<svg xmlns="http://www.w3.org/2000/svg" viewBox="0 0 113.58 114.14">

  <defs>
    <style>
      .cls-1 {
        animation: stroke_fill 5s linear forwards;
        stroke-dasharray: 324.774;
        stroke-dashoffset: 324.774;
      }

      @keyframes stroke_fill {
        0% {
          fill: rgba(0, 255, 0, 0);
        }
        50% {
          fill: rgba(65, 0, 0, 0.5);
          stroke: rgba(0, 255, 0, 1);
          stroke-dashoffset: 20;
        }
        100% {
          fill: rgba(0, 255, 0, 1);
          stroke: rgba(0, 0, 0, 0);
          stroke-dashoffset: 0;
        }
      }


    </style>
  </defs>
  <title>Mike Dreiling Logo</title>

  <g id="Layer_1-1" data-name="Layer 2">
    <g id="Layer_1-2" data-name="Layer 1">
      <path class="cls-1" d="M113.58,27.52c.24,14.16-8.4,28.48-28,28.48h-22V0h22C104.78,0,113.34,13.68,113.58,27.52ZM74.06,45.84H85.58c12.72,0,17.76-9.28,17.52-18.4C102.86,18.72,97.74,10,85.58,10H74.06Z"/>
      <path class="cls-1" d="M113.58,85.66c.24,14.16-8.4,28.48-28,28.48h-22v-56h22C104.78,58.14,113.34,71.82,113.58,85.66ZM74.06,104H85.58c12.72,0,17.76-9.28,17.52-18.4-.24-8.72-5.36-17.44-17.52-17.44H74.06Z"/>
      <path class="cls-1" d="M49.49,0,32.19,26,14.89,0h-12V67.19a27,27,0,0,1,10.43-8.82V16.5L30.93,42.84H33L51,16.58v97.56H61.42V0Z"/><path class="cls-1" d="M28,58.14H48.78v56H28C8.4,114.14-.24,99.82,0,85.66.24,71.82,8.81,58.14,28,58.14Zm11.52,10H28c-12.16,0-17.28,8.72-17.52,17.44C10.25,94.7,15.29,104,28,104H39.53Z"/>
    </g>
  </g>
</svg>
